<svg width="1262" height="240" viewBox="0 0 1262 240" fill="none" xmlns="http://www.w3.org/2000/svg">
<path d="M440.178 73.8V113.9H490.778V134.6H440.178V175.5H504.378V197H413.178V52.4H504.378V73.8H440.178ZM615.917 197H592.117C590.317 197 588.851 196.533 587.717 195.6C586.651 194.667 585.751 193.6 585.017 192.4L563.317 156.7C562.984 157.833 562.584 158.9 562.117 159.9C561.717 160.9 561.251 161.833 560.717 162.7L541.517 192.4C540.784 193.533 539.884 194.6 538.817 195.6C537.751 196.533 536.417 197 534.817 197H512.717L547.917 144.1L514.117 94.4H537.917C539.717 94.4 541.051 94.6667 541.917 95.2C542.784 95.6667 543.551 96.4667 544.217 97.6L565.717 131.8C566.451 129.533 567.484 127.3 568.817 125.1L586.117 98.1C587.584 95.6333 589.484 94.4 591.817 94.4H614.517L580.817 143L615.917 197ZM697.622 116.1C696.889 117.033 696.155 117.767 695.422 118.3C694.755 118.833 693.755 119.1 692.422 119.1C691.155 119.1 689.922 118.733 688.722 118C687.522 117.2 686.089 116.333 684.422 115.4C682.755 114.4 680.755 113.533 678.422 112.8C676.155 112 673.322 111.6 669.922 111.6C665.589 111.6 661.789 112.4 658.522 114C655.255 115.533 652.522 117.767 650.322 120.7C648.189 123.633 646.589 127.2 645.522 131.4C644.455 135.533 643.922 140.233 643.922 145.5C643.922 150.967 644.489 155.833 645.622 160.1C646.822 164.367 648.522 167.967 650.722 170.9C652.922 173.767 655.589 175.967 658.722 177.5C661.855 178.967 665.389 179.7 669.322 179.7C673.255 179.7 676.422 179.233 678.822 178.3C681.289 177.3 683.355 176.233 685.022 175.1C686.689 173.9 688.122 172.833 689.322 171.9C690.589 170.9 691.989 170.4 693.522 170.4C695.522 170.4 697.022 171.167 698.022 172.7L705.122 181.7C702.389 184.9 699.422 187.6 696.222 189.8C693.022 191.933 689.689 193.667 686.222 195C682.822 196.267 679.289 197.167 675.622 197.7C672.022 198.233 668.422 198.5 664.822 198.5C658.489 198.5 652.522 197.333 646.922 195C641.322 192.6 636.422 189.133 632.222 184.6C628.022 180.067 624.689 174.533 622.222 168C619.822 161.4 618.622 153.9 618.622 145.5C618.622 137.967 619.689 131 621.822 124.6C624.022 118.133 627.222 112.567 631.422 107.9C635.622 103.167 640.822 99.4667 647.022 96.8C653.222 94.1333 660.355 92.8 668.422 92.8C676.089 92.8 682.789 94.0333 688.522 96.5C694.322 98.9667 699.522 102.5 704.122 107.1L697.622 116.1ZM809.006 94.4V197H793.906C790.64 197 788.573 195.5 787.706 192.5L786.006 184.3C781.806 188.567 777.173 192.033 772.106 194.7C767.04 197.3 761.073 198.6 754.206 198.6C748.606 198.6 743.64 197.667 739.306 195.8C735.04 193.867 731.44 191.167 728.506 187.7C725.573 184.233 723.34 180.133 721.806 175.4C720.34 170.6 719.606 165.333 719.606 159.6V94.4H744.306V159.6C744.306 165.867 745.74 170.733 748.606 174.2C751.54 177.6 755.906 179.3 761.706 179.3C765.973 179.3 769.973 178.367 773.706 176.5C777.44 174.567 780.973 171.933 784.306 168.6V94.4H809.006ZM856.797 112.2C859.997 106.067 863.797 101.267 868.197 97.8C872.597 94.2667 877.797 92.5 883.797 92.5C888.53 92.5 892.33 93.5333 895.197 95.6L893.597 114.1C893.264 115.3 892.764 116.167 892.097 116.7C891.497 117.167 890.664 117.4 889.597 117.4C888.597 117.4 887.097 117.233 885.097 116.9C883.164 116.567 881.264 116.4 879.397 116.4C876.664 116.4 874.23 116.8 872.097 117.6C869.964 118.4 868.03 119.567 866.297 121.1C864.63 122.567 863.13 124.367 861.797 126.5C860.53 128.633 859.33 131.067 858.197 133.8V197H833.497V94.4H847.997C850.53 94.4 852.297 94.8667 853.297 95.8C854.297 96.6667 854.964 98.2667 855.297 100.6L856.797 112.2ZM970.316 114.4C969.649 115.467 968.949 116.233 968.216 116.7C967.482 117.1 966.549 117.3 965.416 117.3C964.216 117.3 962.916 116.967 961.516 116.3C960.182 115.633 958.616 114.9 956.816 114.1C955.016 113.233 952.949 112.467 950.616 111.8C948.349 111.133 945.649 110.8 942.516 110.8C937.649 110.8 933.816 111.833 931.016 113.9C928.282 115.967 926.916 118.667 926.916 122C926.916 124.2 927.616 126.067 929.016 127.6C930.482 129.067 932.382 130.367 934.716 131.5C937.116 132.633 939.816 133.667 942.816 134.6C945.816 135.467 948.849 136.433 951.916 137.5C955.049 138.567 958.116 139.8 961.116 141.2C964.116 142.533 966.782 144.267 969.116 146.4C971.516 148.467 973.416 150.967 974.816 153.9C976.282 156.833 977.016 160.367 977.016 164.5C977.016 169.433 976.116 174 974.316 178.2C972.582 182.333 969.982 185.933 966.516 189C963.049 192 958.749 194.367 953.616 196.1C948.549 197.767 942.682 198.6 936.016 198.6C932.482 198.6 929.016 198.267 925.616 197.6C922.282 197 919.049 196.133 915.916 195C912.849 193.867 909.982 192.533 907.316 191C904.716 189.467 902.416 187.8 900.416 186L906.116 176.6C906.849 175.467 907.716 174.6 908.716 174C909.716 173.4 910.982 173.1 912.516 173.1C914.049 173.1 915.482 173.533 916.816 174.4C918.216 175.267 919.816 176.2 921.616 177.2C923.416 178.2 925.516 179.133 927.916 180C930.382 180.867 933.482 181.3 937.216 181.3C940.149 181.3 942.649 180.967 944.716 180.3C946.849 179.567 948.582 178.633 949.916 177.5C951.316 176.367 952.316 175.067 952.916 173.6C953.582 172.067 953.916 170.5 953.916 168.9C953.916 166.5 953.182 164.533 951.716 163C950.316 161.467 948.416 160.133 946.016 159C943.682 157.867 940.982 156.867 937.916 156C934.916 155.067 931.816 154.067 928.616 153C925.482 151.933 922.382 150.7 919.316 149.3C916.316 147.833 913.616 146 911.216 143.8C908.882 141.6 906.982 138.9 905.516 135.7C904.116 132.5 903.416 128.633 903.416 124.1C903.416 119.9 904.249 115.9 905.916 112.1C907.582 108.3 910.016 105 913.216 102.2C916.482 99.3333 920.516 97.0667 925.316 95.4C930.182 93.6667 935.782 92.8 942.116 92.8C949.182 92.8 955.616 93.9667 961.416 96.3C967.216 98.6333 972.049 101.7 975.916 105.5L970.316 114.4ZM1021.21 94.4V197H996.406V94.4H1021.21ZM1024.61 64.5C1024.61 66.6333 1024.17 68.6333 1023.31 70.5C1022.44 72.3667 1021.27 74 1019.81 75.4C1018.41 76.8 1016.74 77.9333 1014.81 78.8C1012.87 79.6 1010.81 80 1008.61 80C1006.47 80 1004.44 79.6 1002.51 78.8C1000.64 77.9333 999.006 76.8 997.606 75.4C996.206 74 995.073 72.3667 994.206 70.5C993.406 68.6333 993.006 66.6333 993.006 64.5C993.006 62.3 993.406 60.2333 994.206 58.3C995.073 56.3667 996.206 54.7 997.606 53.3C999.006 51.9 1000.64 50.8 1002.51 50C1004.44 49.1333 1006.47 48.7 1008.61 48.7C1010.81 48.7 1012.87 49.1333 1014.81 50C1016.74 50.8 1018.41 51.9 1019.81 53.3C1021.27 54.7 1022.44 56.3667 1023.31 58.3C1024.17 60.2333 1024.61 62.3 1024.61 64.5ZM1091.79 92.8C1099.39 92.8 1106.29 94.0333 1112.49 96.5C1118.75 98.9667 1124.09 102.467 1128.49 107C1132.95 111.533 1136.39 117.067 1138.79 123.6C1141.19 130.133 1142.39 137.433 1142.39 145.5C1142.39 153.633 1141.19 160.967 1138.79 167.5C1136.39 174.033 1132.95 179.6 1128.49 184.2C1124.09 188.8 1118.75 192.333 1112.49 194.8C1106.29 197.267 1099.39 198.5 1091.79 198.5C1084.12 198.5 1077.15 197.267 1070.89 194.8C1064.62 192.333 1059.25 188.8 1054.79 184.2C1050.39 179.6 1046.95 174.033 1044.49 167.5C1042.09 160.967 1040.89 153.633 1040.89 145.5C1040.89 137.433 1042.09 130.133 1044.49 123.6C1046.95 117.067 1050.39 111.533 1054.79 107C1059.25 102.467 1064.62 98.9667 1070.89 96.5C1077.15 94.0333 1084.12 92.8 1091.79 92.8ZM1091.79 179.5C1100.32 179.5 1106.62 176.633 1110.69 170.9C1114.82 165.167 1116.89 156.767 1116.89 145.7C1116.89 134.633 1114.82 126.2 1110.69 120.4C1106.62 114.6 1100.32 111.7 1091.79 111.7C1083.12 111.7 1076.69 114.633 1072.49 120.5C1068.35 126.3 1066.29 134.7 1066.29 145.7C1066.29 156.7 1068.35 165.1 1072.49 170.9C1076.69 176.633 1083.12 179.5 1091.79 179.5ZM1184.33 107C1186.4 104.933 1188.56 103.033 1190.83 101.3C1193.16 99.5 1195.6 98 1198.13 96.8C1200.73 95.5333 1203.5 94.5667 1206.43 93.9C1209.36 93.1667 1212.56 92.8 1216.03 92.8C1221.63 92.8 1226.6 93.7667 1230.93 95.7C1235.26 97.5667 1238.86 100.233 1241.73 103.7C1244.66 107.1 1246.86 111.2 1248.33 116C1249.86 120.733 1250.63 125.967 1250.63 131.7V197H1225.93V131.7C1225.93 125.433 1224.5 120.6 1221.63 117.2C1218.76 113.733 1214.4 112 1208.53 112C1204.26 112 1200.26 112.967 1196.53 114.9C1192.8 116.833 1189.26 119.467 1185.93 122.8V197H1161.23V94.4H1176.33C1179.53 94.4 1181.63 95.9 1182.63 98.9L1184.33 107Z" fill="#112211"/>
<g clip-path="url(#clip0_435_3926)">
<mask id="mask0_435_3926" style="mask-type:luminance" maskUnits="userSpaceOnUse" x="273" y="45" width="173" height="173">
<path d="M273 45H446V218H273V45Z" fill="white"/>
</mask>
<g mask="url(#mask0_435_3926)">
<path d="M414.131 158.033C413.71 158.457 413.208 158.794 412.656 159.023C412.103 159.253 411.511 159.371 410.913 159.371C410.314 159.371 409.722 159.253 409.17 159.023C408.617 158.794 408.116 158.457 407.694 158.033L401.257 151.595C400.832 151.173 400.496 150.672 400.266 150.12C400.036 149.567 399.918 148.975 399.918 148.377C399.918 147.778 400.036 147.186 400.266 146.634C400.496 146.081 400.832 145.58 401.257 145.158L414.131 132.283C414.554 131.86 415.056 131.524 415.608 131.295C416.16 131.066 416.752 130.948 417.35 130.948C417.948 130.948 418.54 131.066 419.092 131.295C419.645 131.524 420.146 131.86 420.569 132.283L427.006 138.72C427.431 139.142 427.767 139.644 427.997 140.196C428.227 140.749 428.345 141.341 428.345 141.939C428.345 142.537 428.227 143.13 427.997 143.682C427.767 144.235 427.431 144.736 427.006 145.158L414.131 158.033Z" fill="#66757F"/>
<path d="M345.842 89.7433C345.42 90.1675 344.919 90.5042 344.366 90.7339C343.814 90.9636 343.221 91.0819 342.623 91.0819C342.025 91.0819 341.433 90.9636 340.88 90.7339C340.328 90.5042 339.826 90.1675 339.404 89.7433L332.967 83.3059C332.543 82.884 332.206 82.3825 331.976 81.8301C331.747 81.2777 331.628 80.6854 331.628 80.0871C331.628 79.4889 331.747 78.8965 331.976 78.3442C332.206 77.7918 332.543 77.2902 332.967 76.8684L345.842 63.9936C346.264 63.5704 346.766 63.2347 347.318 63.0057C347.871 62.7766 348.463 62.6588 349.061 62.6588C349.659 62.6588 350.251 62.7766 350.803 63.0057C351.355 63.2347 351.857 63.5704 352.279 63.9936L358.717 70.431C359.141 70.8528 359.478 71.3543 359.707 71.9067C359.937 72.4591 360.055 73.0515 360.055 73.6497C360.055 74.248 359.937 74.8403 359.707 75.3927C359.478 75.9451 359.141 76.4466 358.717 76.8684L345.842 89.7433Z" fill="#66757F"/>
<path d="M286.658 149.711C295.763 149.711 336.737 154.263 336.737 154.263C336.737 154.263 341.289 195.237 341.289 204.342C341.289 213.447 332.184 213.447 327.631 208.895C323.079 204.342 309.421 181.579 309.421 181.579C309.421 181.579 286.658 167.921 282.105 163.368C277.553 158.816 277.553 149.711 286.658 149.711Z" fill="#55ACEE"/>
<path d="M295.763 77.046C309.421 76.8684 409.579 81.4211 409.579 81.4211C409.579 81.4211 413.785 181.579 413.958 195.237C414.131 208.895 401.384 213.456 396.376 195.241C391.368 177.026 373.158 117.842 373.158 117.842C373.158 117.842 309.626 97.7377 295.74 94.6146C277.553 90.5263 282.105 77.2235 295.763 77.046Z" fill="#55ACEE"/>
<path d="M400.474 63.2105C409.579 54.1053 432.342 49.5527 436.895 54.1053C441.447 58.6579 436.895 81.4211 427.789 90.5263C418.684 99.6316 341.289 172.474 341.289 172.474C341.289 172.474 311.697 192.961 304.868 186.132C298.039 179.303 318.526 149.711 318.526 149.711C318.526 149.711 391.368 72.3158 400.474 63.2105Z" fill="#CCD6DD"/>
<path d="M341.289 149.71C341.289 149.71 343.566 151.987 323.079 172.474C302.592 192.96 300.316 190.684 300.316 190.684C300.316 190.684 298.039 188.408 318.526 167.921C339.013 147.434 341.289 149.71 341.289 149.71Z" fill="#66757F"/>
<path d="M409.579 67.7631C413.201 67.7631 416.675 69.2021 419.236 71.7634C421.798 74.3248 423.237 77.7987 423.237 81.421H426.902C427.421 79.9869 427.789 78.4846 427.789 76.8684C427.789 73.2461 426.35 69.7722 423.789 67.2108C421.228 64.6494 417.754 63.2105 414.131 63.2105C412.515 63.2105 411.008 63.5793 409.579 64.0983V67.7631Z" fill="#66757F"/>
</g>
</g>
<path d="M117.166 74.5H73.5664V197H46.6664V74.5H3.06641V52.4H117.166V74.5ZM135.371 112.2C138.571 106.067 142.371 101.267 146.771 97.8C151.171 94.2667 156.371 92.5 162.371 92.5C167.104 92.5 170.904 93.5333 173.771 95.6L172.171 114.1C171.838 115.3 171.338 116.167 170.671 116.7C170.071 117.167 169.238 117.4 168.171 117.4C167.171 117.4 165.671 117.233 163.671 116.9C161.738 116.567 159.838 116.4 157.971 116.4C155.238 116.4 152.804 116.8 150.671 117.6C148.538 118.4 146.604 119.567 144.871 121.1C143.204 122.567 141.704 124.367 140.371 126.5C139.104 128.633 137.904 131.067 136.771 133.8V197H112.071V94.4H126.571C129.104 94.4 130.871 94.8667 131.871 95.8C132.871 96.6667 133.538 98.2667 133.871 100.6L135.371 112.2ZM212.28 94.4V197H187.48V94.4H212.28ZM215.68 64.5C215.68 66.6333 215.247 68.6333 214.38 70.5C213.514 72.3667 212.347 74 210.88 75.4C209.48 76.8 207.814 77.9333 205.88 78.8C203.947 79.6 201.88 80 199.68 80C197.547 80 195.514 79.6 193.58 78.8C191.714 77.9333 190.08 76.8 188.68 75.4C187.28 74 186.147 72.3667 185.28 70.5C184.48 68.6333 184.08 66.6333 184.08 64.5C184.08 62.3 184.48 60.2333 185.28 58.3C186.147 56.3667 187.28 54.7 188.68 53.3C190.08 51.9 191.714 50.8 193.58 50C195.514 49.1333 197.547 48.7 199.68 48.7C201.88 48.7 203.947 49.1333 205.88 50C207.814 50.8 209.48 51.9 210.88 53.3C212.347 54.7 213.514 56.3667 214.38 58.3C215.247 60.2333 215.68 62.3 215.68 64.5ZM262.162 170.4C264.962 173.8 267.995 176.2 271.262 177.6C274.595 179 278.195 179.7 282.062 179.7C285.795 179.7 289.162 179 292.162 177.6C295.162 176.2 297.695 174.067 299.762 171.2C301.895 168.333 303.528 164.733 304.662 160.4C305.795 156 306.362 150.833 306.362 144.9C306.362 138.9 305.862 133.833 304.862 129.7C303.928 125.5 302.562 122.1 300.762 119.5C298.962 116.9 296.762 115 294.162 113.8C291.628 112.6 288.728 112 285.462 112C280.328 112 275.962 113.1 272.362 115.3C268.762 117.433 265.362 120.467 262.162 124.4V170.4ZM260.862 108.4C265.062 103.667 269.828 99.8333 275.162 96.9C280.495 93.9667 286.762 92.5 293.962 92.5C299.562 92.5 304.662 93.6667 309.262 96C313.928 98.3333 317.928 101.733 321.262 106.2C324.662 110.6 327.262 116.067 329.062 122.6C330.928 129.067 331.862 136.5 331.862 144.9C331.862 152.567 330.828 159.667 328.762 166.2C326.695 172.733 323.728 178.4 319.862 183.2C316.062 188 311.428 191.767 305.962 194.5C300.562 197.167 294.495 198.5 287.762 198.5C282.028 198.5 277.128 197.633 273.062 195.9C268.995 194.1 265.362 191.633 262.162 188.5V230.5H237.462V94.4H252.562C255.762 94.4 257.862 95.9 258.862 98.9L260.862 108.4Z" fill="#112211"/>
<defs>
<clipPath id="clip0_435_3926">
<rect width="173" height="173" fill="white" transform="translate(273 45)"/>
</clipPath>
</defs>
</svg>
