<svg width="1280" height="240" viewBox="0 0 1280 240" fill="none" xmlns="http://www.w3.org/2000/svg">
<path d="M458.178 73.8V113.9H508.778V134.6H458.178V175.5H522.378V197H431.178V52.4H522.378V73.8H458.178ZM633.917 197H610.117C608.317 197 606.851 196.533 605.717 195.6C604.651 194.667 603.751 193.6 603.017 192.4L581.317 156.7C580.984 157.833 580.584 158.9 580.117 159.9C579.717 160.9 579.251 161.833 578.717 162.7L559.517 192.4C558.784 193.533 557.884 194.6 556.817 195.6C555.751 196.533 554.417 197 552.817 197H530.717L565.917 144.1L532.117 94.4H555.917C557.717 94.4 559.051 94.6667 559.917 95.2C560.784 95.6667 561.551 96.4667 562.217 97.6L583.717 131.8C584.451 129.533 585.484 127.3 586.817 125.1L604.117 98.1C605.584 95.6333 607.484 94.4 609.817 94.4H632.517L598.817 143L633.917 197ZM715.622 116.1C714.889 117.033 714.155 117.767 713.422 118.3C712.755 118.833 711.755 119.1 710.422 119.1C709.155 119.1 707.922 118.733 706.722 118C705.522 117.2 704.089 116.333 702.422 115.4C700.755 114.4 698.755 113.533 696.422 112.8C694.155 112 691.322 111.6 687.922 111.6C683.589 111.6 679.789 112.4 676.522 114C673.255 115.533 670.522 117.767 668.322 120.7C666.189 123.633 664.589 127.2 663.522 131.4C662.455 135.533 661.922 140.233 661.922 145.5C661.922 150.967 662.489 155.833 663.622 160.1C664.822 164.367 666.522 167.967 668.722 170.9C670.922 173.767 673.589 175.967 676.722 177.5C679.855 178.967 683.389 179.7 687.322 179.7C691.255 179.7 694.422 179.233 696.822 178.3C699.289 177.3 701.355 176.233 703.022 175.1C704.689 173.9 706.122 172.833 707.322 171.9C708.589 170.9 709.989 170.4 711.522 170.4C713.522 170.4 715.022 171.167 716.022 172.7L723.122 181.7C720.389 184.9 717.422 187.6 714.222 189.8C711.022 191.933 707.689 193.667 704.222 195C700.822 196.267 697.289 197.167 693.622 197.7C690.022 198.233 686.422 198.5 682.822 198.5C676.489 198.5 670.522 197.333 664.922 195C659.322 192.6 654.422 189.133 650.222 184.6C646.022 180.067 642.689 174.533 640.222 168C637.822 161.4 636.622 153.9 636.622 145.5C636.622 137.967 637.689 131 639.822 124.6C642.022 118.133 645.222 112.567 649.422 107.9C653.622 103.167 658.822 99.4667 665.022 96.8C671.222 94.1333 678.355 92.8 686.422 92.8C694.089 92.8 700.789 94.0333 706.522 96.5C712.322 98.9667 717.522 102.5 722.122 107.1L715.622 116.1ZM827.006 94.4V197H811.906C808.64 197 806.573 195.5 805.706 192.5L804.006 184.3C799.806 188.567 795.173 192.033 790.106 194.7C785.04 197.3 779.073 198.6 772.206 198.6C766.606 198.6 761.64 197.667 757.306 195.8C753.04 193.867 749.44 191.167 746.506 187.7C743.573 184.233 741.34 180.133 739.806 175.4C738.34 170.6 737.606 165.333 737.606 159.6V94.4H762.306V159.6C762.306 165.867 763.74 170.733 766.606 174.2C769.54 177.6 773.906 179.3 779.706 179.3C783.973 179.3 787.973 178.367 791.706 176.5C795.44 174.567 798.973 171.933 802.306 168.6V94.4H827.006ZM874.797 112.2C877.997 106.067 881.797 101.267 886.197 97.8C890.597 94.2667 895.797 92.5 901.797 92.5C906.53 92.5 910.33 93.5333 913.197 95.6L911.597 114.1C911.264 115.3 910.764 116.167 910.097 116.7C909.497 117.167 908.664 117.4 907.597 117.4C906.597 117.4 905.097 117.233 903.097 116.9C901.164 116.567 899.264 116.4 897.397 116.4C894.664 116.4 892.23 116.8 890.097 117.6C887.964 118.4 886.03 119.567 884.297 121.1C882.63 122.567 881.13 124.367 879.797 126.5C878.53 128.633 877.33 131.067 876.197 133.8V197H851.497V94.4H865.997C868.53 94.4 870.297 94.8667 871.297 95.8C872.297 96.6667 872.964 98.2667 873.297 100.6L874.797 112.2ZM988.316 114.4C987.649 115.467 986.949 116.233 986.216 116.7C985.482 117.1 984.549 117.3 983.416 117.3C982.216 117.3 980.916 116.967 979.516 116.3C978.182 115.633 976.616 114.9 974.816 114.1C973.016 113.233 970.949 112.467 968.616 111.8C966.349 111.133 963.649 110.8 960.516 110.8C955.649 110.8 951.816 111.833 949.016 113.9C946.282 115.967 944.916 118.667 944.916 122C944.916 124.2 945.616 126.067 947.016 127.6C948.482 129.067 950.382 130.367 952.716 131.5C955.116 132.633 957.816 133.667 960.816 134.6C963.816 135.467 966.849 136.433 969.916 137.5C973.049 138.567 976.116 139.8 979.116 141.2C982.116 142.533 984.782 144.267 987.116 146.4C989.516 148.467 991.416 150.967 992.816 153.9C994.282 156.833 995.016 160.367 995.016 164.5C995.016 169.433 994.116 174 992.316 178.2C990.582 182.333 987.982 185.933 984.516 189C981.049 192 976.749 194.367 971.616 196.1C966.549 197.767 960.682 198.6 954.016 198.6C950.482 198.6 947.016 198.267 943.616 197.6C940.282 197 937.049 196.133 933.916 195C930.849 193.867 927.982 192.533 925.316 191C922.716 189.467 920.416 187.8 918.416 186L924.116 176.6C924.849 175.467 925.716 174.6 926.716 174C927.716 173.4 928.982 173.1 930.516 173.1C932.049 173.1 933.482 173.533 934.816 174.4C936.216 175.267 937.816 176.2 939.616 177.2C941.416 178.2 943.516 179.133 945.916 180C948.382 180.867 951.482 181.3 955.216 181.3C958.149 181.3 960.649 180.967 962.716 180.3C964.849 179.567 966.582 178.633 967.916 177.5C969.316 176.367 970.316 175.067 970.916 173.6C971.582 172.067 971.916 170.5 971.916 168.9C971.916 166.5 971.182 164.533 969.716 163C968.316 161.467 966.416 160.133 964.016 159C961.682 157.867 958.982 156.867 955.916 156C952.916 155.067 949.816 154.067 946.616 153C943.482 151.933 940.382 150.7 937.316 149.3C934.316 147.833 931.616 146 929.216 143.8C926.882 141.6 924.982 138.9 923.516 135.7C922.116 132.5 921.416 128.633 921.416 124.1C921.416 119.9 922.249 115.9 923.916 112.1C925.582 108.3 928.016 105 931.216 102.2C934.482 99.3333 938.516 97.0667 943.316 95.4C948.182 93.6667 953.782 92.8 960.116 92.8C967.182 92.8 973.616 93.9667 979.416 96.3C985.216 98.6333 990.049 101.7 993.916 105.5L988.316 114.4ZM1039.21 94.4V197H1014.41V94.4H1039.21ZM1042.61 64.5C1042.61 66.6333 1042.17 68.6333 1041.31 70.5C1040.44 72.3667 1039.27 74 1037.81 75.4C1036.41 76.8 1034.74 77.9333 1032.81 78.8C1030.87 79.6 1028.81 80 1026.61 80C1024.47 80 1022.44 79.6 1020.51 78.8C1018.64 77.9333 1017.01 76.8 1015.61 75.4C1014.21 74 1013.07 72.3667 1012.21 70.5C1011.41 68.6333 1011.01 66.6333 1011.01 64.5C1011.01 62.3 1011.41 60.2333 1012.21 58.3C1013.07 56.3667 1014.21 54.7 1015.61 53.3C1017.01 51.9 1018.64 50.8 1020.51 50C1022.44 49.1333 1024.47 48.7 1026.61 48.7C1028.81 48.7 1030.87 49.1333 1032.81 50C1034.74 50.8 1036.41 51.9 1037.81 53.3C1039.27 54.7 1040.44 56.3667 1041.31 58.3C1042.17 60.2333 1042.61 62.3 1042.61 64.5ZM1109.79 92.8C1117.39 92.8 1124.29 94.0333 1130.49 96.5C1136.75 98.9667 1142.09 102.467 1146.49 107C1150.95 111.533 1154.39 117.067 1156.79 123.6C1159.19 130.133 1160.39 137.433 1160.39 145.5C1160.39 153.633 1159.19 160.967 1156.79 167.5C1154.39 174.033 1150.95 179.6 1146.49 184.2C1142.09 188.8 1136.75 192.333 1130.49 194.8C1124.29 197.267 1117.39 198.5 1109.79 198.5C1102.12 198.5 1095.15 197.267 1088.89 194.8C1082.62 192.333 1077.25 188.8 1072.79 184.2C1068.39 179.6 1064.95 174.033 1062.49 167.5C1060.09 160.967 1058.89 153.633 1058.89 145.5C1058.89 137.433 1060.09 130.133 1062.49 123.6C1064.95 117.067 1068.39 111.533 1072.79 107C1077.25 102.467 1082.62 98.9667 1088.89 96.5C1095.15 94.0333 1102.12 92.8 1109.79 92.8ZM1109.79 179.5C1118.32 179.5 1124.62 176.633 1128.69 170.9C1132.82 165.167 1134.89 156.767 1134.89 145.7C1134.89 134.633 1132.82 126.2 1128.69 120.4C1124.62 114.6 1118.32 111.7 1109.79 111.7C1101.12 111.7 1094.69 114.633 1090.49 120.5C1086.35 126.3 1084.29 134.7 1084.29 145.7C1084.29 156.7 1086.35 165.1 1090.49 170.9C1094.69 176.633 1101.12 179.5 1109.79 179.5ZM1202.33 107C1204.4 104.933 1206.56 103.033 1208.83 101.3C1211.16 99.5 1213.6 98 1216.13 96.8C1218.73 95.5333 1221.5 94.5667 1224.43 93.9C1227.36 93.1667 1230.56 92.8 1234.03 92.8C1239.63 92.8 1244.6 93.7667 1248.93 95.7C1253.26 97.5667 1256.86 100.233 1259.73 103.7C1262.66 107.1 1264.86 111.2 1266.33 116C1267.86 120.733 1268.63 125.967 1268.63 131.7V197H1243.93V131.7C1243.93 125.433 1242.5 120.6 1239.63 117.2C1236.76 113.733 1232.4 112 1226.53 112C1222.26 112 1218.26 112.967 1214.53 114.9C1210.8 116.833 1207.26 119.467 1203.93 122.8V197H1179.23V94.4H1194.33C1197.53 94.4 1199.63 95.9 1200.63 98.9L1202.33 107Z" fill="white"/>
<path d="M117.166 74.5H73.5664V197H46.6664V74.5H3.06641V52.4H117.166V74.5ZM135.371 112.2C138.571 106.067 142.371 101.267 146.771 97.8C151.171 94.2667 156.371 92.5 162.371 92.5C167.104 92.5 170.904 93.5333 173.771 95.6L172.171 114.1C171.838 115.3 171.338 116.167 170.671 116.7C170.071 117.167 169.238 117.4 168.171 117.4C167.171 117.4 165.671 117.233 163.671 116.9C161.738 116.567 159.838 116.4 157.971 116.4C155.238 116.4 152.804 116.8 150.671 117.6C148.538 118.4 146.604 119.567 144.871 121.1C143.204 122.567 141.704 124.367 140.371 126.5C139.104 128.633 137.904 131.067 136.771 133.8V197H112.071V94.4H126.571C129.104 94.4 130.871 94.8667 131.871 95.8C132.871 96.6667 133.538 98.2667 133.871 100.6L135.371 112.2ZM212.28 94.4V197H187.48V94.4H212.28ZM215.68 64.5C215.68 66.6333 215.247 68.6333 214.38 70.5C213.514 72.3667 212.347 74 210.88 75.4C209.48 76.8 207.814 77.9333 205.88 78.8C203.947 79.6 201.88 80 199.68 80C197.547 80 195.514 79.6 193.58 78.8C191.714 77.9333 190.08 76.8 188.68 75.4C187.28 74 186.147 72.3667 185.28 70.5C184.48 68.6333 184.08 66.6333 184.08 64.5C184.08 62.3 184.48 60.2333 185.28 58.3C186.147 56.3667 187.28 54.7 188.68 53.3C190.08 51.9 191.714 50.8 193.58 50C195.514 49.1333 197.547 48.7 199.68 48.7C201.88 48.7 203.947 49.1333 205.88 50C207.814 50.8 209.48 51.9 210.88 53.3C212.347 54.7 213.514 56.3667 214.38 58.3C215.247 60.2333 215.68 62.3 215.68 64.5ZM262.162 170.4C264.962 173.8 267.995 176.2 271.262 177.6C274.595 179 278.195 179.7 282.062 179.7C285.795 179.7 289.162 179 292.162 177.6C295.162 176.2 297.695 174.067 299.762 171.2C301.895 168.333 303.528 164.733 304.662 160.4C305.795 156 306.362 150.833 306.362 144.9C306.362 138.9 305.862 133.833 304.862 129.7C303.928 125.5 302.562 122.1 300.762 119.5C298.962 116.9 296.762 115 294.162 113.8C291.628 112.6 288.728 112 285.462 112C280.328 112 275.962 113.1 272.362 115.3C268.762 117.433 265.362 120.467 262.162 124.4V170.4ZM260.862 108.4C265.062 103.667 269.828 99.8333 275.162 96.9C280.495 93.9667 286.762 92.5 293.962 92.5C299.562 92.5 304.662 93.6667 309.262 96C313.928 98.3333 317.928 101.733 321.262 106.2C324.662 110.6 327.262 116.067 329.062 122.6C330.928 129.067 331.862 136.5 331.862 144.9C331.862 152.567 330.828 159.667 328.762 166.2C326.695 172.733 323.728 178.4 319.862 183.2C316.062 188 311.428 191.767 305.962 194.5C300.562 197.167 294.495 198.5 287.762 198.5C282.028 198.5 277.128 197.633 273.062 195.9C268.995 194.1 265.362 191.633 262.162 188.5V230.5H237.462V94.4H252.562C255.762 94.4 257.862 95.9 258.862 98.9L260.862 108.4Z" fill="white"/>
<g clip-path="url(#clip0_367_4376)">
<path opacity="0.1" d="M437.199 53.2171L438.821 55.144C443.78 61.0325 446.295 68.7612 445.813 76.6301C445.331 84.4989 441.892 91.8632 436.252 97.1029L322.661 202.633C326.406 203.938 330.419 204.185 334.296 203.348C338.172 202.511 341.777 200.62 344.749 197.865L455.986 94.5218C460.359 90.5509 463.161 85.0094 463.837 78.9955C464.513 72.9816 463.013 66.9341 459.635 62.0515C457.081 58.5047 453.62 55.7936 449.65 54.2306C445.681 52.6676 441.365 52.3163 437.199 53.2171Z" fill="#4B4668"/>
<path d="M322.374 199.787L346.053 177.795" stroke="#F59394" stroke-width="3" stroke-linecap="round" stroke-linejoin="round"/>
<path d="M405.942 77.6884L369.501 111.55C369.346 111.693 369.156 111.787 368.952 111.819C368.749 111.852 368.541 111.821 368.354 111.732L330.675 93.469C329.261 92.777 328.035 91.7261 327.108 90.4108C326.18 89.0954 325.58 87.5568 325.361 85.9331C325.141 84.3095 325.31 82.6517 325.852 81.1086C326.393 79.5656 327.29 78.1856 328.463 77.0928C330.238 75.4399 332.536 74.5436 334.902 74.5815L405.277 75.7499C405.488 75.7576 405.692 75.8312 405.862 75.9614C406.032 76.0915 406.161 76.2721 406.232 76.4803C406.304 76.6884 406.314 76.9146 406.263 77.1298C406.211 77.345 406.099 77.5395 405.942 77.6884Z" fill="#55ACEE"/>
<path d="M401.208 82.0831L362.208 118.322L323.909 99.7538C322.495 99.0618 321.27 98.011 320.342 96.6957C319.415 95.3803 318.814 93.8418 318.595 92.2182C318.376 90.5946 318.544 88.9369 319.086 87.3939C319.627 85.8509 320.525 84.471 321.697 83.3782C323.473 81.7253 325.771 80.8291 328.136 80.867L401.208 82.0831Z" stroke="#4B4668" stroke-width="3" stroke-linecap="round" stroke-linejoin="round"/>
<path d="M318.28 159.328L294.917 149.51C293.479 148.932 291.914 148.784 290.396 149.082C288.878 149.38 287.465 150.112 286.314 151.198C284.668 152.752 283.67 154.923 283.537 157.237C283.404 159.551 284.148 161.821 285.606 163.552L312.845 195.904C316.795 200.596 322.368 203.437 328.338 203.802C331.294 203.983 334.258 203.551 337.062 202.53C339.866 201.51 342.454 199.92 344.679 197.853L456.484 93.9722C460.977 89.7978 463.717 83.9308 464.1 77.6618C464.484 71.3928 462.481 65.2354 458.531 60.5441C454.581 55.8528 449.008 53.012 443.038 52.6465C437.068 52.281 431.19 54.4208 426.698 58.5952L318.28 159.328Z" fill="white" stroke="#4B4668" stroke-width="3" stroke-linecap="round" stroke-linejoin="round"/>
<path d="M383.304 143.353L402.943 195.407C403.514 196.91 404.42 198.245 405.585 199.302C406.75 200.359 408.14 201.107 409.64 201.483C411.14 201.859 412.706 201.853 414.208 201.465C415.709 201.077 417.103 200.318 418.272 199.252C419.297 198.301 420.121 197.134 420.689 195.829C421.256 194.523 421.556 193.108 421.568 191.676L422.315 107.103" fill="white"/>
<path d="M383.304 143.353L402.943 195.407C403.514 196.91 404.42 198.245 405.585 199.302C406.75 200.359 408.14 201.107 409.64 201.483C411.14 201.859 412.706 201.853 414.208 201.465C415.709 201.077 417.103 200.318 418.272 199.252C419.297 198.301 420.121 197.134 420.689 195.829C421.256 194.523 421.556 193.108 421.568 191.676L422.315 107.103" stroke="#4B4668" stroke-width="3" stroke-linecap="round" stroke-linejoin="round"/>
<path d="M332.311 165.297L304.265 153.51M452.423 56.8471L437.172 71.0182M384.137 180.218L392.61 172.346M391.251 181.493L394.64 178.344M336.463 123.593L348.325 112.571M336.127 116.02L339.517 112.871" stroke="#4B4668" stroke-width="3" stroke-linecap="round" stroke-linejoin="round"/>
<g opacity="0.2">
<path d="M309.054 126.421L316.511 135.279M317.023 126.909L308.541 134.791" stroke="#4B4668" stroke-width="3" stroke-linecap="round" stroke-linejoin="round"/>
</g>
<g opacity="0.2">
<path d="M396.061 40.8598L403.518 49.7177M404.031 41.3478L395.548 49.2297" stroke="#4B4668" stroke-width="3" stroke-linecap="round" stroke-linejoin="round"/>
</g>
<path opacity="0.5" d="M299.247 88.2266C301.589 86.05 301.819 82.3027 299.759 79.8567C297.7 77.4107 294.132 77.1922 291.79 79.3687C289.447 81.5452 289.218 85.2925 291.277 87.7386C293.337 90.1846 296.905 90.4031 299.247 88.2266Z" stroke="#55ACEE" stroke-width="3" stroke-linecap="round" stroke-linejoin="round"/>
</g>
<defs>
<clipPath id="clip0_367_4376">
<rect width="201" height="185" fill="white" transform="translate(277 26)"/>
</clipPath>
</defs>
</svg>
